# xmcd
#
# Track frame offsets:
#	150
#	39436
#	61510
#	87263
#	114814
#	135904
#	172323
#	185986
#	214454
#	232507
#	252456
#	270742
#	289256
#
# Disc length: 4024 seconds
#
# Revision: 0
# Processed by: cddbd v1.5.2PL0 Copyright (c) Steve Scherf et al.
# Submitted via: EZCDAudioConverter 2.1.7.1
#
DISCID=b80fb60d
DTITLE=Dom Um Romao - Dom Um Romao (1974)/Spirit Of The Times
DYEAR=1900
DGENRE=
TTITLE0=Dom's Tune
TTITLE1=Cinnamon Flower (Cravo E Canela)
TTITLE2=Family Talk
TTITLE3=Ponteio
TTITLE4=Braun-Blek-Blu
TTITLE5=Adeus Maria Fulo
TTITLE6=Shake (Ginga Gingou)
TTITLE7=Wait On The Corner
TTITLE8=Lamento Negro
TTITLE9=Highway
TTITLE10=The Angels
TTITLE11=The Salvation Army
TTITLE12=Kitchen (Cosinha)
EXTD=
EXTT0=
EXTT1=
EXTT2=
EXTT3=
EXTT4=
EXTT5=
EXTT6=
EXTT7=
EXTT8=
EXTT9=
EXTT10=
EXTT11=
EXTT12=
PLAYORDER=
